# xmcd CD database file
#
# Track frame offsets:
#	150
#	5344
#	16106
#	38467
#	55308
#	64828
#	77242
#	83965
#	96003
#	108020
#	128634
#	143967
#
# Disc length: 2090 seconds
#
# Revision: 1
# Processed by: cddbd v1.5.2PL0 Copyright (c) Steve Scherf et al.
# Submitted via: CDex 1.51
#
DISCID=8a08280c
DTITLE=The Dirty Hand Family Band - Get In
DYEAR=2011
DGENRE=Country
TTITLE0=Lord I'll Die A Poor Ol' Man
TTITLE1=Midnight Train
TTITLE2=Movin' On
TTITLE3=The Tillman
TTITLE4=One More Time
TTITLE5=Hound Dawg
TTITLE6=Always Say Get 'Em
TTITLE7=Devil Came To Town
TTITLE8=Night Comes Crawlin'
TTITLE9=Lonesome Blues
TTITLE10=Devil's At The Door
TTITLE11=God Dam!
EXTD=YEAR: 2011
EXTT0=
EXTT1=
EXTT2=
EXTT3=
EXTT4=
EXTT5=
EXTT6=
EXTT7=
EXTT8=
EXTT9=
EXTT10=
EXTT11=
PLAYORDER=
